# xmcd CD database file
#
# Track frame offsets:
#	150
#	19822
#	33457
#
# Disc length: 705 seconds
#
# Revision: 0
# Processed by: cddbd v1.5PL3 Copyright (c) Steve Scherf et al.
# Submitted via: CDex 1.50Beta7
#
DISCID=1c02bf03
DTITLE=ココナッツ娘。 - 情熱行き 未来船
DYEAR=2001
DGENRE=J-Pop
TTITLE0=情熱行き 未来船
TTITLE1=恋人ブギウギ
TTITLE2=情熱行き 未来船(Inst)
EXTD=YEAR: 2001
EXTT0=
EXTT1=
EXTT2=
PLAYORDER=
